# xmcd CD database file
#
# Track frame offsets:
#	150
#	23691
#	37393
#	47549
#	66235
#	83238
#	99268
#	124397
#	139744
#	153573
#	171244
#	188735
#	204454
#	219327
#	235543
#	257392
#	269730
#	299048
#
# Disc length: 4177 seconds
#
# Revision: 0
# Processed by: cddbd v1.5.1PL2 Copyright (c) Steve Scherf et al.
# Submitted via: CDex 1.51
#
DISCID=0b104f12
DTITLE=Varioust - The Beat Inside
DYEAR=2000
DGENRE=Blues
TTITLE0=Hear the Wind Blow - Lazy James Band
TTITLE1=One of These days - Lloyd Speigel
TTITLE2=The Doggie Stole My Soap Again Blues - Sue Nightingale
TTITLE3=Seal my Lips - Marco Goldsmith
TTITLE4=Sweet Thing - Billy Kavanagh
TTITLE5=The Storm - Lloyd Speigel
TTITLE6=Yeah They're Crazy - 999 Soulful Fragments
TTITLE7=Talking - Lazy James Band
TTITLE8=Chunky Bits - Billy Kavanagh
TTITLE9=Voices of Yesterday - Lloyd Speigel
TTITLE10=You Shit Me - Sue Nightingale
TTITLE11=8 Hour Blues - Lazy James Band
TTITLE12=Hey! Hey! Hey! - Marco Goldsmith
TTITLE13=I'm Missing You - Sue Nightingale
TTITLE14=Motherload - Marco Goldsmith
TTITLE15=Your Shout - Billy Kavanagh
TTITLE16=In the Middle of the Night - 999 Soulful Fragments
TTITLE17=Hey Baby - 999 Soulful Fragments
EXTD=YEAR: 2000
EXTT0=
EXTT1=
EXTT2=
EXTT3=
EXTT4=
EXTT5=
EXTT6=
EXTT7=
EXTT8=
EXTT9=
EXTT10=
EXTT11=
EXTT12=
EXTT13=
EXTT14=
EXTT15=
EXTT16=
EXTT17=
PLAYORDER=
